<svg width="254" height="324" viewBox="0 0 254 324" fill="none" xmlns="http://www.w3.org/2000/svg">
<path d="M10 7.5H192.024C192.625 7.5 193.207 7.71698 193.661 8.11112L245.638 53.1762C246.185 53.651 246.5 54.3402 246.5 55.065V314C246.5 315.381 245.381 316.5 244 316.5H10C8.61929 316.5 7.5 315.381 7.5 314V9.99999C7.5 8.61929 8.61928 7.5 10 7.5Z" fill="white" stroke="black" stroke-width="15"/>
<rect x="180" width="15" height="65" fill="black"/>
<rect x="180" width="15" height="65" fill="black"/>
<rect x="253" y="55" width="15" height="73" transform="rotate(90 253 55)" fill="black"/>
<rect x="253" y="55" width="15" height="73" transform="rotate(90 253 55)" fill="black"/>
<rect x="35" y="79" width="184" height="18" fill="#D9D9D9"/>
<rect x="35" y="108" width="184" height="74" fill="#D9D9D9"/>
<rect x="35" y="194" width="184" height="70" fill="#D9D9D9"/>
<rect x="35" y="273" width="184" height="18" fill="#D9D9D9"/>
<path d="M124.091 223.636V107.273H131.545V223.636H124.091ZM149.182 142.182C148.636 137.576 146.424 134 142.545 131.455C138.667 128.909 133.909 127.636 128.273 127.636C124.152 127.636 120.545 128.303 117.455 129.636C114.394 130.97 112 132.803 110.273 135.136C108.576 137.47 107.727 140.121 107.727 143.091C107.727 145.576 108.318 147.712 109.5 149.5C110.712 151.258 112.258 152.727 114.136 153.909C116.015 155.061 117.985 156.015 120.045 156.773C122.106 157.5 124 158.091 125.727 158.545L135.182 161.091C137.606 161.727 140.303 162.606 143.273 163.727C146.273 164.848 149.136 166.379 151.864 168.318C154.621 170.227 156.894 172.682 158.682 175.682C160.47 178.682 161.364 182.364 161.364 186.727C161.364 191.758 160.045 196.303 157.409 200.364C154.803 204.424 150.985 207.652 145.955 210.045C140.955 212.439 134.879 213.636 127.727 213.636C121.061 213.636 115.288 212.561 110.409 210.409C105.561 208.258 101.742 205.258 98.9545 201.409C96.197 197.561 94.6364 193.091 94.2727 188H105.909C106.212 191.515 107.394 194.424 109.455 196.727C111.545 199 114.182 200.697 117.364 201.818C120.576 202.909 124.03 203.455 127.727 203.455C132.03 203.455 135.894 202.758 139.318 201.364C142.742 199.939 145.455 197.97 147.455 195.455C149.455 192.909 150.455 189.939 150.455 186.545C150.455 183.455 149.591 180.939 147.864 179C146.136 177.061 143.864 175.485 141.045 174.273C138.227 173.061 135.182 172 131.909 171.091L120.455 167.818C113.182 165.727 107.424 162.742 103.182 158.864C98.9394 154.985 96.8182 149.909 96.8182 143.636C96.8182 138.424 98.2273 133.879 101.045 130C103.894 126.091 107.712 123.061 112.5 120.909C117.318 118.727 122.697 117.636 128.636 117.636C134.636 117.636 139.97 118.712 144.636 120.864C149.303 122.985 153 125.894 155.727 129.591C158.485 133.288 159.939 137.485 160.091 142.182H149.182Z" fill="black"/>
</svg>
