<svg width="211" height="26" viewBox="0 0 211 26" fill="none" xmlns="http://www.w3.org/2000/svg">
<path d="M3.34473 4.33691L3.37988 3.39648C3.37988 2.99805 3.31543 2.7373 3.18652 2.61426C3.05762 2.49121 2.78809 2.42969 2.37793 2.42969H0.541016L0.505859 0.988281H5.9375L14.1465 20.21L22.2061 0.988281H27.9717V2.42969H26.75C26.0234 2.42969 25.5283 2.5 25.2646 2.64062C25.0068 2.77539 24.8779 3.08887 24.8779 3.58105V21.9414C24.8779 22.5801 24.9043 22.9521 24.957 23.0576C25.0156 23.1631 25.083 23.2539 25.1592 23.3301C25.2412 23.4062 25.3262 23.4561 25.4141 23.4795C25.5078 23.4971 25.6426 23.5176 25.8184 23.541C26.0293 23.5762 26.4453 23.5938 27.0664 23.5938H27.7871L27.8223 25H19.0771L19.042 23.5938H19.7627C20.7881 23.5938 21.377 23.541 21.5293 23.4355C21.6875 23.3242 21.793 23.1982 21.8457 23.0576C21.9219 22.8701 21.96 22.5215 21.96 22.0117V5.48828L16.4141 18.5576C15.623 20.4326 14.999 21.9619 14.542 23.1455C14.085 24.3291 13.8242 24.9766 13.7598 25.0879C13.6953 25.1992 13.5986 25.2549 13.4697 25.2549C13.2646 25.2549 12.793 24.4023 12.0547 22.6973L4.82129 5.9541L4.68066 22.3721C4.68066 22.7939 4.75098 23.0869 4.8916 23.251C5.03223 23.415 5.35742 23.5146 5.86719 23.5498C6.37695 23.5791 7.17969 23.5938 8.27539 23.5938V25H0.505859V23.5938H0.866211C1.87402 23.5938 2.44824 23.541 2.58887 23.4355C2.73535 23.3242 2.83789 23.1924 2.89648 23.04C2.9668 22.8525 3.00781 22.4746 3.01953 21.9062L3.34473 4.33691ZM30.1074 2.42969L30.1426 0.988281H38.2021V2.42969H37.4814C36.7783 2.42969 36.2891 2.45898 36.0137 2.51758C35.7441 2.57031 35.6094 2.69629 35.6094 2.89551C35.6094 3.00684 35.8262 3.42578 36.2598 4.15234L41.4102 12.2559L47.7031 3.32617C47.8496 3.08008 47.9229 2.93652 47.9229 2.89551C47.9229 2.69629 47.7412 2.57031 47.3779 2.51758C47.0146 2.45898 46.417 2.42969 45.585 2.42969H45.0049L44.9697 0.988281H51.5264V2.42969H51.3418C50.7031 2.42969 50.3135 2.47656 50.1729 2.57031C50.0381 2.66406 49.9062 2.77246 49.7773 2.89551C49.5723 3.08301 49.291 3.43164 48.9336 3.94141L41.9111 14.0928V21.9414C41.9111 22.5801 41.9375 22.9521 41.9902 23.0576C42.0488 23.1631 42.1162 23.2539 42.1924 23.3301C42.2686 23.4062 42.3506 23.4561 42.4385 23.4795C42.5322 23.4971 42.6611 23.5176 42.8252 23.541C43.0244 23.5762 43.4287 23.5938 44.0381 23.5938H45.6553L45.6201 25H35.5039L35.5391 23.5938H36.9805C37.8652 23.5938 38.3838 23.5439 38.5361 23.4443C38.6943 23.3389 38.791 23.251 38.8262 23.1807C38.8613 23.1104 38.8965 23.0137 38.9316 22.8906C38.9727 22.7324 38.9932 22.4395 38.9932 22.0117V13.8027L33.0957 4.62695C32.5156 3.71875 32.1318 3.15332 31.9443 2.93066C31.7627 2.70215 31.5547 2.56152 31.3203 2.50879C31.0859 2.45605 30.6816 2.42969 30.1074 2.42969ZM60.1221 2.42969L60.1572 0.988281H69.1924V2.42969H68.5771C67.7451 2.42969 67.2588 2.45312 67.1182 2.5C66.9834 2.54102 66.8662 2.59082 66.7666 2.64941C66.667 2.70801 66.5996 2.77539 66.5645 2.85156C66.5352 2.92188 66.5 3.01855 66.459 3.1416C66.4062 3.32324 66.3799 3.63672 66.3799 4.08203V21.9414C66.3799 22.7148 66.4443 23.1572 66.5732 23.2686C66.708 23.374 66.8574 23.4502 67.0215 23.4971C67.2441 23.5615 67.6777 23.5938 68.3223 23.5938H69.7285L69.7637 25H60.5527L60.5176 23.5938H61.4492C62.3867 23.5938 62.9258 23.541 63.0664 23.4355C63.2129 23.3242 63.3125 23.1982 63.3652 23.0576C63.4355 22.8701 63.4707 22.5215 63.4707 22.0117V3.72168C63.4707 3.09473 63.4121 2.74316 63.2949 2.66699C63.1836 2.59082 63.0488 2.53516 62.8906 2.5C62.7031 2.45312 62.2842 2.42969 61.6338 2.42969H60.1221ZM71.7236 0.988281H77.2959L92.0615 20.0342V3.72168C92.0615 3.15918 91.9268 2.79004 91.6572 2.61426C91.4639 2.49121 90.9395 2.42969 90.084 2.42969H88.8184L88.8887 0.988281H96.5615V2.42969H95.7354C94.9912 2.42969 94.5078 2.5 94.2852 2.64062C93.9277 2.85156 93.749 3.30859 93.749 4.01172V24.7451C93.749 25.0967 93.7314 25.3281 93.6963 25.4395C93.667 25.5566 93.5762 25.6152 93.4238 25.6152H92.9229C92.7236 25.6152 92.6035 25.5889 92.5625 25.5361C92.5215 25.4834 92.4863 25.4424 92.457 25.4131C92.4336 25.3838 92.3867 25.3193 92.3164 25.2197C92.252 25.126 92.1904 25.041 92.1318 24.9648L76.4346 4.80273L76.6191 21.9414C76.6191 22.7207 76.7715 23.1953 77.0762 23.3652C77.3691 23.5176 78.1045 23.5938 79.2822 23.5938H79.8887V25H72.3301V23.5938H73.4111C74.2021 23.5938 74.6533 23.459 74.7646 23.1895C74.8701 22.9316 74.9229 22.5391 74.9229 22.0117V2.86035L74.5625 2.42969H71.7588L71.7236 0.988281ZM98.5127 2.42969V0.988281H107.548L107.513 2.42969H105.605C105.283 2.42969 105.058 2.45898 104.929 2.51758C104.8 2.57031 104.735 2.71973 104.735 2.96582C104.735 3.21191 104.905 3.75391 105.245 4.5918L111.934 21.2207L119.501 3.83594C119.618 3.51367 119.677 3.2793 119.677 3.13281C119.677 2.98047 119.633 2.85449 119.545 2.75488C119.463 2.64941 119.328 2.57617 119.141 2.53516C118.859 2.46484 118.449 2.42969 117.91 2.42969H116.759L116.688 0.988281H124.001L123.922 2.42969H122.885C122.299 2.42969 121.871 2.61719 121.602 2.99219C121.338 3.37305 121.021 3.98535 120.652 4.8291C120.289 5.67285 120.078 6.15625 120.02 6.2793C119.932 6.49023 119.771 6.8623 119.536 7.39551L111.468 25.5361H110.861L102.503 5.2334C102.04 4.12012 101.709 3.41113 101.51 3.10645C101.316 2.7959 101.088 2.60547 100.824 2.53516C100.566 2.46484 100.215 2.42969 99.7695 2.42969H98.5127ZM124.722 12.8623C124.722 11.7256 124.886 10.5537 125.214 9.34668C125.542 8.13379 125.996 7.06738 126.576 6.14746C127.156 5.22754 127.839 4.4043 128.624 3.67773C129.415 2.95117 130.276 2.35938 131.208 1.90234C133.112 0.958984 135.113 0.487305 137.211 0.487305C139.982 0.487305 142.47 1.25195 144.673 2.78125C147.005 4.4043 148.514 6.70703 149.199 9.68945C149.439 10.7383 149.56 11.7812 149.56 12.8184C149.56 13.8496 149.475 14.8047 149.305 15.6836C149.141 16.5566 148.883 17.4092 148.531 18.2412C148.186 19.0732 147.761 19.8555 147.257 20.5879C146.753 21.3203 146.149 21.9941 145.446 22.6094C144.749 23.2188 143.979 23.7432 143.135 24.1826C141.354 25.1143 139.285 25.5801 136.93 25.5801C133.643 25.5801 130.897 24.6104 128.694 22.6709C126.046 20.3447 124.722 17.0752 124.722 12.8623ZM129.072 6.60449C128.732 7.27832 128.463 8.08105 128.264 9.0127C128.064 9.94434 127.965 10.8906 127.965 11.8516C127.965 12.8125 128.032 13.709 128.167 14.541C128.308 15.3672 128.519 16.1758 128.8 16.9668C129.087 17.752 129.43 18.499 129.828 19.208C130.232 19.9111 130.713 20.5586 131.27 21.1504C131.826 21.7363 132.436 22.2432 133.098 22.6709C134.486 23.5732 136.086 24.0244 137.896 24.0244C139.355 24.0244 140.721 23.6553 141.992 22.917C143.258 22.1846 144.283 21.0654 145.068 19.5596C145.883 18.0127 146.29 16.1289 146.29 13.9082C146.29 10.3223 145.256 7.38086 143.188 5.08398C141.998 3.75391 140.56 2.83398 138.872 2.32422C138.075 2.08398 137.349 1.96387 136.692 1.96387C136.042 1.96387 135.462 2.01074 134.952 2.10449C134.442 2.19824 133.906 2.3623 133.344 2.59668C132.781 2.8252 132.245 3.1123 131.735 3.45801C131.226 3.79785 130.739 4.24023 130.276 4.78516C129.813 5.32422 129.412 5.93066 129.072 6.60449ZM152.478 2.42969L152.513 0.988281H161.548V2.42969H160.933C160.101 2.42969 159.614 2.45312 159.474 2.5C159.339 2.54102 159.222 2.59082 159.122 2.64941C159.022 2.70801 158.955 2.77539 158.92 2.85156C158.891 2.92188 158.855 3.01855 158.814 3.1416C158.762 3.32324 158.735 3.63672 158.735 4.08203V21.9414C158.735 22.7148 158.8 23.1572 158.929 23.2686C159.063 23.374 159.213 23.4502 159.377 23.4971C159.6 23.5615 160.033 23.5938 160.678 23.5938H162.084L162.119 25H152.908L152.873 23.5938H153.805C154.742 23.5938 155.281 23.541 155.422 23.4355C155.568 23.3242 155.668 23.1982 155.721 23.0576C155.791 22.8701 155.826 22.5215 155.826 22.0117V3.72168C155.826 3.09473 155.768 2.74316 155.65 2.66699C155.539 2.59082 155.404 2.53516 155.246 2.5C155.059 2.45312 154.64 2.42969 153.989 2.42969H152.478ZM185.85 0.917969L185.858 0.698242H187.221C187.291 3.03613 187.435 5.33008 187.651 7.58008L186.359 7.61523C186.248 6.68359 186.187 6.13281 186.175 5.96289C186.169 5.79297 186.148 5.61133 186.113 5.41797C186.078 5.21875 186.055 5.08691 186.043 5.02246C186.037 4.95801 185.999 4.87012 185.929 4.75879C185.864 4.6416 185.812 4.57129 185.771 4.54785C185.735 4.51855 185.656 4.46289 185.533 4.38086C185.41 4.29883 185.302 4.24023 185.208 4.20508C185.009 4.14062 184.643 3.9707 184.109 3.69531C183.576 3.41992 182.744 3.1709 181.613 2.94824C180.488 2.71973 179.34 2.60547 178.168 2.60547C176.996 2.60547 175.88 2.77832 174.819 3.12402C173.759 3.46973 172.824 3.95605 172.016 4.58301C171.207 5.2041 170.507 5.93359 169.915 6.77148C168.708 8.4707 168.104 10.4307 168.104 12.6514C168.104 14.5439 168.573 16.3691 169.511 18.127C170.425 19.8438 171.705 21.2441 173.352 22.3281C175.045 23.4355 176.932 23.9893 179.012 23.9893C181.016 23.9893 182.984 23.3447 184.918 22.0557C185.984 21.3467 186.523 20.7549 186.535 20.2803L186.649 17.2568H187.906L187.695 22.5127C185.568 24.001 183.107 24.9648 180.312 25.4043C179.568 25.5215 178.836 25.5801 178.115 25.5801C173.973 25.5801 170.753 24.5078 168.456 22.3633C166.183 20.2422 165.046 17.3535 165.046 13.6973C165.046 10.2754 166.15 7.39258 168.359 5.04883C169.59 3.74219 171.131 2.70801 172.982 1.94629C174.641 1.26074 176.205 0.917969 177.676 0.917969C179.152 0.917969 180.371 0.976562 181.332 1.09375C182.299 1.21094 183.008 1.33984 183.459 1.48047C183.91 1.61523 184.303 1.74121 184.637 1.8584C184.971 1.97559 185.196 2.03418 185.313 2.03418C185.431 2.03418 185.524 2.02539 185.595 2.00781C185.665 1.98438 185.721 1.92578 185.762 1.83203C185.82 1.69727 185.85 1.39258 185.85 0.917969ZM198.251 23.3477C203.05 23.3008 205.906 23.2393 206.82 23.1631C207.74 23.0869 208.265 22.9844 208.394 22.8555C208.522 22.7266 208.619 22.5684 208.684 22.3809C208.754 22.1875 208.947 21.1416 209.264 19.2432L210.494 19.4189L209.589 25H191.343V23.5938H192.274C193.171 23.5938 193.684 23.5498 193.812 23.4619C193.947 23.3682 194.041 23.2598 194.094 23.1367C194.152 22.9844 194.182 22.6826 194.182 22.2314V3.97656C194.182 3.26172 194.053 2.81641 193.795 2.64062C193.572 2.5 192.86 2.42969 191.659 2.42969H190.657L190.622 0.988281H209.158C209.193 3.05664 209.255 4.94043 209.343 6.63965L207.937 6.70996C207.849 4.34277 207.67 3.01562 207.4 2.72852C207.318 2.64062 207.181 2.58789 206.987 2.57031C206.8 2.54688 206.24 2.53516 205.309 2.53516H199.183C198.192 2.53516 197.63 2.58789 197.495 2.69336C197.36 2.79883 197.264 2.92773 197.205 3.08008C197.135 3.25586 197.1 3.63965 197.1 4.23145V9.23242C197.1 9.93555 197.135 10.3281 197.205 10.4102C197.281 10.4863 197.369 10.5449 197.469 10.5859C197.598 10.6445 197.87 10.6738 198.286 10.6738H203.727C204.359 10.6738 204.723 10.6123 204.816 10.4893C204.91 10.3604 204.975 10.2197 205.01 10.0674C205.062 9.86816 205.089 9.46973 205.089 8.87207V7.50098L206.425 7.53613V16.1406H205.089V14.2686C205.089 13.2666 205.039 12.7041 204.939 12.5811C204.84 12.458 204.77 12.3848 204.729 12.3613C204.693 12.332 204.614 12.3086 204.491 12.291C204.374 12.2676 204.277 12.2559 204.201 12.2559H198.392C197.794 12.2559 197.437 12.3145 197.319 12.4316C197.173 12.5898 197.1 12.9033 197.1 13.3721V21.8711C197.1 22.4922 197.173 22.8936 197.319 23.0752C197.466 23.2568 197.776 23.3477 198.251 23.3477Z" fill="#0F0F0F"/>
</svg>
